<svg width="800" height="600" viewBox="0 0 800 600" fill="none" xmlns="http://www.w3.org/2000/svg">
  <!-- Credit card -->
  <rect x="250" y="200" width="300" height="200" rx="20" fill="#63EDC8"/>
  <rect x="270" y="240" width="200" height="30" rx="5" fill="#ADDE65"/>
  <rect x="270" y="320" width="100" height="20" rx="5" fill="#ADDE65"/>
  <rect x="420" y="320" width="60" height="20" rx="5" fill="#ADDE65"/>
  
  <!-- Decorative elements -->
  <circle cx="600" cy="150" r="15" fill="#FD8F00"/>
  <circle cx="200" cy="450" r="10" fill="#FD8F00"/>
  <path d="M650 250 Q 670 270, 650 290 T 650 330" stroke="#ADDE65" stroke-width="3"/>
  <path d="M150 200 Q 170 220, 150 240 T 150 280" stroke="#63EDC8" stroke-width="3"/>
  
  <!-- Flower elements -->
  <g transform="translate(620,400) rotate(-15)">
    <path d="M0,0 C10,-10 20,-10 30,0 C20,10 10,10 0,0" fill="#FD8F00"/>
    <circle cx="15" cy="0" r="5" fill="#FFDD00"/>
  </g>
  <g transform="translate(180,150) rotate(25)">
    <path d="M0,0 C10,-10 20,-10 30,0 C20,10 10,10 0,0" fill="#FD8F00"/>
    <circle cx="15" cy="0" r="5" fill="#FFDD00"/>
  </g>
</svg> 